<svg xmlns="http://www.w3.org/2000/svg" viewBox="0 0 90.76 96.07"><defs><style>.cls-1{fill:#faaa44;}.cls-2{fill:#4cc9f5;}</style></defs><g id="Layer_2" data-name="Layer 2"><g id="Layer_1-2" data-name="Layer 1"><path class="cls-1" d="M57.69,45a26.56,26.56,0,1,1,0-22.68h0a1.82,1.82,0,0,0,1.64,1h3.82a1.82,1.82,0,0,0,1.68-2.51h0a33.69,33.69,0,1,0,0,25.61h0A1.81,1.81,0,0,0,63.15,44H59.33a1.81,1.81,0,0,0-1.64,1Z"/><path class="cls-2" d="M59.53,28.8a33.62,33.62,0,0,0-33.6,20.79l-.38.92a1.14,1.14,0,0,0,1.06,1.58h5.24a1.14,1.14,0,0,0,1-.65l.18-.38a26.56,26.56,0,1,1,0,22.67L33,73.49a1.41,1.41,0,0,0-1.27-.8H27a1.4,1.4,0,0,0-1.3,1.93l.24.58a33.68,33.68,0,1,0,33.6-46.4Z"/></g></g></svg>