<svg xmlns="http://www.w3.org/2000/svg" viewBox="0 0 649.99 96.07"><defs><style>.cls-1{fill:#faaa44;}.cls-2{fill:#4cc9f5;}.cls-3{fill:#404041;}</style></defs><g id="Layer_2" data-name="Layer 2"><g id="Layer_1-2" data-name="Layer 1"><path class="cls-1" d="M57.69,45a26.56,26.56,0,1,1,0-22.68h0a1.82,1.82,0,0,0,1.64,1h3.82a1.82,1.82,0,0,0,1.68-2.51h0a33.69,33.69,0,1,0,0,25.61h0A1.81,1.81,0,0,0,63.15,44H59.33a1.81,1.81,0,0,0-1.64,1Z"/><path class="cls-2" d="M59.53,28.8a33.62,33.62,0,0,0-33.6,20.79l-.38.92a1.14,1.14,0,0,0,1.06,1.58h5.24a1.14,1.14,0,0,0,1-.65l.18-.38a26.56,26.56,0,1,1,0,22.67L33,73.49a1.41,1.41,0,0,0-1.27-.8H27a1.4,1.4,0,0,0-1.3,1.93l.24.58a33.68,33.68,0,1,0,33.6-46.4Z"/><path class="cls-3" d="M110.9,34.48a26.42,26.42,0,0,1,6.1-9.16,27.89,27.89,0,0,1,9.38-6,32.79,32.79,0,0,1,12-2.1,34.92,34.92,0,0,1,8.93,1.23,29.18,29.18,0,0,1,8,3.34l-1.16,5.89a48.21,48.21,0,0,0-8.62-3.45,29.54,29.54,0,0,0-7.88-1.05,22.46,22.46,0,0,0-11.45,2.87A20.05,20.05,0,0,0,118.42,34a24.1,24.1,0,0,0-2.76,11.74,24.18,24.18,0,0,0,2.76,11.84,19.38,19.38,0,0,0,7.74,7.78,23.83,23.83,0,0,0,11.74,2.76A35.22,35.22,0,0,0,146.33,67,47.35,47.35,0,0,0,155,64l.73,5.81a40.1,40.1,0,0,1-18.17,4.29A31.49,31.49,0,0,1,125.94,72a27.31,27.31,0,0,1-9.12-5.81,26.16,26.16,0,0,1-6-8.87,29.36,29.36,0,0,1-2.11-11.23A30.75,30.75,0,0,1,110.9,34.48Z"/><path class="cls-3" d="M167,14.42h6.18V42.69a11.65,11.65,0,0,1,4.72-5.08A13.92,13.92,0,0,1,185,35.79q6.48,0,10,4t3.49,11.52v22h-6.18V52.43q0-11.19-8.72-11.19a9.55,9.55,0,0,0-7.63,3.2q-2.76,3.2-2.76,8.79V73.29H167Z"/><path class="cls-3" d="M246.26,73.29h-6l-.15-6.61a15.5,15.5,0,0,1-5.74,5.74,16,16,0,0,1-8.14,2,16.57,16.57,0,0,1-9-2.47A17,17,0,0,1,211,65.11a21.61,21.61,0,0,1-2.25-10,19.86,19.86,0,0,1,2.43-9.77,18.87,18.87,0,0,1,6.58-7,17,17,0,0,1,9.16-2.58,14.73,14.73,0,0,1,7.59,2,15.15,15.15,0,0,1,5.56,5.75l.15-6.62h6Zm-29.54-11a12.24,12.24,0,0,0,4.5,4.87,13.39,13.39,0,0,0,13.2,0,12.31,12.31,0,0,0,4.47-4.87,15.31,15.31,0,0,0,1.63-7.2,15.27,15.27,0,0,0-1.63-7.19,12.18,12.18,0,0,0-4.47-4.87,13.32,13.32,0,0,0-13.2,0,12.11,12.11,0,0,0-4.5,4.87,15.28,15.28,0,0,0-1.64,7.19A15.32,15.32,0,0,0,216.72,62.32Z"/><path class="cls-3" d="M259.38,26a4.32,4.32,0,0,1-1.2-3.13,4.28,4.28,0,0,1,1.2-3.12,4.33,4.33,0,0,1,6.07,0,4.38,4.38,0,0,1,1.16,3.12A4.42,4.42,0,0,1,265.45,26a4.36,4.36,0,0,1-6.07,0Zm0,11h6.18V73.29h-6.18Z"/><path class="cls-3" d="M278.6,37h5.82l.07,6.25a11.8,11.8,0,0,1,4.76-5.45,13.94,13.94,0,0,1,7.38-2q6.47,0,10,4t3.48,11.52v22H303.9V52.43q0-11.19-8.72-11.19a9.57,9.57,0,0,0-7.64,3.2q-2.76,3.2-2.76,8.79V73.29H278.6Z"/><path class="cls-3" d="M322.54,34.48a26.42,26.42,0,0,1,6.1-9.16,27.89,27.89,0,0,1,9.38-6,32.78,32.78,0,0,1,12-2.1,34.94,34.94,0,0,1,8.94,1.23,29.18,29.18,0,0,1,8,3.34l-1.16,5.89a48.21,48.21,0,0,0-8.62-3.45,29.54,29.54,0,0,0-7.88-1.05,22.46,22.46,0,0,0-11.45,2.87A20.05,20.05,0,0,0,330.06,34a24.1,24.1,0,0,0-2.76,11.74,24.18,24.18,0,0,0,2.76,11.84,19.38,19.38,0,0,0,7.74,7.78,23.83,23.83,0,0,0,11.74,2.76A35.22,35.22,0,0,0,358,67,47.35,47.35,0,0,0,366.62,64l.72,5.81a40,40,0,0,1-18.17,4.29A31.48,31.48,0,0,1,337.58,72a27.31,27.31,0,0,1-9.12-5.81,26.16,26.16,0,0,1-6-8.87,29.36,29.36,0,0,1-2.11-11.23A30.75,30.75,0,0,1,322.54,34.48Z"/><path class="cls-3" d="M411.61,64.9a19.21,19.21,0,0,1-6.87,7,18.47,18.47,0,0,1-9.63,2.58A18.6,18.6,0,0,1,378.57,65a19.52,19.52,0,0,1-2.5-9.89,19.1,19.1,0,0,1,9.41-16.75,18.42,18.42,0,0,1,9.63-2.58,19,19,0,0,1,9.77,2.54,18.41,18.41,0,0,1,6.8,6.91,19.64,19.64,0,0,1,2.47,9.88A19.22,19.22,0,0,1,411.61,64.9ZM384,62.32a12.26,12.26,0,0,0,4.51,4.87,13.37,13.37,0,0,0,13.19,0,12.31,12.31,0,0,0,4.47-4.87,15.32,15.32,0,0,0,1.64-7.2,15.28,15.28,0,0,0-1.64-7.19,12,12,0,0,0-11.08-6.62,12.35,12.35,0,0,0-6.58,1.75A12.13,12.13,0,0,0,384,47.93a15.27,15.27,0,0,0-1.63,7.19A15.31,15.31,0,0,0,384,62.32Z"/><path class="cls-3" d="M424.69,37h5.81l.07,6.18a11.66,11.66,0,0,1,4.69-5.42,13.66,13.66,0,0,1,7.23-1.92q8.86,0,11.85,8.14A12.29,12.29,0,0,1,459.17,38a13.67,13.67,0,0,1,7.67-2.22q6.46,0,10,4t3.49,11.52v22h-6.18V52.43q0-11.19-8.72-11.19a8.82,8.82,0,0,0-7.2,3.2q-2.61,3.2-2.61,8.79V73.29H449.4V52.36q0-11.11-8.58-11.12a9,9,0,0,0-7.3,3.16q-2.65,3.16-2.65,8.76V73.29h-6.18Z"/><path class="cls-3" d="M493.15,37H499l.14,7a14.92,14.92,0,0,1,5.74-6.1,16.31,16.31,0,0,1,8.36-2.11,16.51,16.51,0,0,1,9,2.47,17.19,17.19,0,0,1,6.18,6.83,21.57,21.57,0,0,1,2.25,10,19.87,19.87,0,0,1-2.43,9.78,18.9,18.9,0,0,1-6.54,7,17,17,0,0,1-9.2,2.58,14.75,14.75,0,0,1-7.66-2,15.16,15.16,0,0,1-5.49-5.71V91.1h-6.18Zm25.07,30.24a12.34,12.34,0,0,0,4.48-4.87,15.31,15.31,0,0,0,1.63-7.2,15.27,15.27,0,0,0-1.63-7.19,12,12,0,0,0-11.09-6.62A12.38,12.38,0,0,0,505,43.06a12.11,12.11,0,0,0-4.5,4.87,15.28,15.28,0,0,0-1.64,7.19,15.32,15.32,0,0,0,1.64,7.2,12.24,12.24,0,0,0,4.5,4.87,13.37,13.37,0,0,0,13.19,0Z"/><path class="cls-3" d="M576.15,73.29h-6L570,66.68a15.57,15.57,0,0,1-5.74,5.74,16.07,16.07,0,0,1-8.14,2,16.57,16.57,0,0,1-9-2.47,16.92,16.92,0,0,1-6.22-6.87,21.61,21.61,0,0,1-2.25-10,19.86,19.86,0,0,1,2.43-9.77,18.87,18.87,0,0,1,6.58-7,17,17,0,0,1,9.16-2.58,14.73,14.73,0,0,1,7.59,2A15.22,15.22,0,0,1,570,43.57l.15-6.62h6Zm-29.54-11a12.24,12.24,0,0,0,4.5,4.87,12.42,12.42,0,0,0,17.66-4.87,15.32,15.32,0,0,0,1.64-7.2,15.28,15.28,0,0,0-1.64-7.19,11.94,11.94,0,0,0-11.08-6.62,12.38,12.38,0,0,0-6.58,1.75,12.11,12.11,0,0,0-4.5,4.87A15.28,15.28,0,0,0,545,55.12,15.32,15.32,0,0,0,546.61,62.32Z"/><path class="cls-3" d="M589.23,37h5.82l.07,7.56a13.43,13.43,0,0,1,4.43-5.92,10.88,10.88,0,0,1,6.62-2.15,14.6,14.6,0,0,1,2.36.22,6.55,6.55,0,0,1,1.93.58l-.66,5.82a13.54,13.54,0,0,0-2.11-.62,10.44,10.44,0,0,0-2.25-.26,8.78,8.78,0,0,0-7.34,3.49q-2.69,3.49-2.69,9.74V73.29h-6.18Z"/><path class="cls-3" d="M635.68,74.45A23.22,23.22,0,0,1,625,72.13a16.37,16.37,0,0,1-7-6.65,20.51,20.51,0,0,1-2.44-10.21,21.19,21.19,0,0,1,2.33-10.11,17.63,17.63,0,0,1,6.4-6.86,17.28,17.28,0,0,1,9.3-2.51A16.16,16.16,0,0,1,642.18,38a15.56,15.56,0,0,1,5.74,6.25A20.14,20.14,0,0,1,650,53.67q0,.94,0,1.74c0,.54-.06,1.09-.11,1.67h-28.2a12.76,12.76,0,0,0,4.36,8.8q3.71,3,10,3.05a28.17,28.17,0,0,0,12.5-3l.72,5.23a20.72,20.72,0,0,1-6.06,2.4A31.65,31.65,0,0,1,635.68,74.45ZM625.43,44a13.22,13.22,0,0,0-3.71,8.17H644a7.47,7.47,0,0,0-.14-1.52,10.92,10.92,0,0,0-3.38-7.12,10.62,10.62,0,0,0-7.3-2.48A10.74,10.74,0,0,0,625.43,44Z"/></g></g></svg>